<mxfile host="app.diagrams.net" agent="Mozilla/5.0 (X11; Linux x86_64) AppleWebKit/537.36 (KHTML, like Gecko) Chrome/129.0.0.0 Safari/537.36" version="24.8.3">
  <diagram name="Pàgina-1" id="mhbHxmUa4zc_a_H4eHv1">
    <mxGraphModel dx="2074" dy="1114" grid="1" gridSize="10" guides="1" tooltips="1" connect="1" arrows="1" fold="1" page="1" pageScale="1" pageWidth="827" pageHeight="1169" math="0" shadow="0">
      <root>
        <mxCell id="0" />
        <mxCell id="1" parent="0" />
        <mxCell id="bIK6wui3ePqaCmGUiWQX-16" value="git checkout&amp;nbsp;&lt;font color=&quot;#666666&quot;&gt;&amp;lt;branch_name&amp;gt;&lt;/font&gt;" style="text;html=1;strokeColor=none;fillColor=none;align=center;verticalAlign=middle;whiteSpace=wrap;rounded=0;fontSize=16;fontStyle=1;fontColor=#0066CC;" parent="1" vertex="1">
          <mxGeometry x="305" y="840" width="260" height="30" as="geometry" />
        </mxCell>
        <mxCell id="NIXyUDK9sE63bxnREDiY-1" value="git switch&amp;nbsp;&lt;font color=&quot;#666666&quot;&gt;&amp;lt;branch_name&amp;gt;&lt;/font&gt;" style="text;html=1;strokeColor=none;fillColor=none;align=center;verticalAlign=middle;whiteSpace=wrap;rounded=0;fontSize=16;fontStyle=1;fontColor=#0066CC;" parent="1" vertex="1">
          <mxGeometry x="305" y="870" width="260" height="30" as="geometry" />
        </mxCell>
        <mxCell id="wJYU-AGBm8jU2JMhAJ0I-1" style="rounded=0;orthogonalLoop=1;jettySize=auto;html=1;exitX=0.5;exitY=1;exitDx=0;exitDy=0;fillColor=#d5e8d4;strokeColor=#82b366;" edge="1" parent="1" source="wJYU-AGBm8jU2JMhAJ0I-2" target="wJYU-AGBm8jU2JMhAJ0I-11">
          <mxGeometry relative="1" as="geometry">
            <mxPoint x="411.6666666666665" y="690" as="targetPoint" />
          </mxGeometry>
        </mxCell>
        <mxCell id="wJYU-AGBm8jU2JMhAJ0I-2" value="main" style="ellipse;whiteSpace=wrap;html=1;fillColor=#d5e8d4;strokeColor=#82b366;fontSize=16;fontStyle=1" vertex="1" parent="1">
          <mxGeometry x="315" y="610" width="100" height="40" as="geometry" />
        </mxCell>
        <mxCell id="wJYU-AGBm8jU2JMhAJ0I-3" style="rounded=0;orthogonalLoop=1;jettySize=auto;html=1;exitX=0.5;exitY=1;exitDx=0;exitDy=0;fillColor=#dae8fc;strokeColor=#6c8ebf;" edge="1" parent="1" source="wJYU-AGBm8jU2JMhAJ0I-4" target="wJYU-AGBm8jU2JMhAJ0I-11">
          <mxGeometry relative="1" as="geometry">
            <mxPoint x="458.3333333333335" y="690" as="targetPoint" />
          </mxGeometry>
        </mxCell>
        <mxCell id="wJYU-AGBm8jU2JMhAJ0I-4" value="menjar" style="ellipse;whiteSpace=wrap;html=1;fillColor=#dae8fc;strokeColor=#6c8ebf;fontSize=16;fontStyle=1" vertex="1" parent="1">
          <mxGeometry x="455" y="610" width="100" height="40" as="geometry" />
        </mxCell>
        <mxCell id="wJYU-AGBm8jU2JMhAJ0I-5" style="edgeStyle=orthogonalEdgeStyle;rounded=0;orthogonalLoop=1;jettySize=auto;html=1;exitX=0.5;exitY=1;exitDx=0;exitDy=0;fillColor=#f5f5f5;strokeColor=#666666;" edge="1" parent="1" source="wJYU-AGBm8jU2JMhAJ0I-6" target="wJYU-AGBm8jU2JMhAJ0I-4">
          <mxGeometry relative="1" as="geometry">
            <mxPoint x="675" y="602.5" as="targetPoint" />
          </mxGeometry>
        </mxCell>
        <mxCell id="wJYU-AGBm8jU2JMhAJ0I-6" value="HEAD" style="ellipse;whiteSpace=wrap;html=1;fillColor=#f5f5f5;strokeColor=#666666;fontSize=16;fontStyle=1;fontColor=#333333;" vertex="1" parent="1">
          <mxGeometry x="455" y="540" width="100" height="40" as="geometry" />
        </mxCell>
        <mxCell id="wJYU-AGBm8jU2JMhAJ0I-7" value="beguda" style="ellipse;whiteSpace=wrap;html=1;fillColor=#dae8fc;strokeColor=#6c8ebf;fontSize=16;fontStyle=1" vertex="1" parent="1">
          <mxGeometry x="315" y="770" width="100" height="40" as="geometry" />
        </mxCell>
        <mxCell id="wJYU-AGBm8jU2JMhAJ0I-8" style="rounded=0;orthogonalLoop=1;jettySize=auto;html=1;fillColor=#dae8fc;strokeColor=#6c8ebf;" edge="1" parent="1" source="wJYU-AGBm8jU2JMhAJ0I-7" target="wJYU-AGBm8jU2JMhAJ0I-11">
          <mxGeometry relative="1" as="geometry">
            <mxPoint x="549" y="660" as="sourcePoint" />
            <mxPoint x="417.5" y="730" as="targetPoint" />
          </mxGeometry>
        </mxCell>
        <mxCell id="wJYU-AGBm8jU2JMhAJ0I-9" value="neteja" style="ellipse;whiteSpace=wrap;html=1;fillColor=#dae8fc;strokeColor=#6c8ebf;fontSize=16;fontStyle=1" vertex="1" parent="1">
          <mxGeometry x="455" y="770" width="100" height="40" as="geometry" />
        </mxCell>
        <mxCell id="wJYU-AGBm8jU2JMhAJ0I-10" style="rounded=0;orthogonalLoop=1;jettySize=auto;html=1;fillColor=#dae8fc;strokeColor=#6c8ebf;" edge="1" parent="1" source="wJYU-AGBm8jU2JMhAJ0I-9" target="wJYU-AGBm8jU2JMhAJ0I-11">
          <mxGeometry relative="1" as="geometry">
            <mxPoint x="375" y="782" as="sourcePoint" />
            <mxPoint x="452.5" y="730" as="targetPoint" />
          </mxGeometry>
        </mxCell>
        <mxCell id="wJYU-AGBm8jU2JMhAJ0I-11" value="&lt;i style=&quot;font-size: 16px;&quot;&gt;&lt;font style=&quot;font-size: 12px;&quot;&gt;Commit inicial&lt;/font&gt;&lt;/i&gt;" style="ellipse;whiteSpace=wrap;html=1;fillColor=#f5f5f5;fontColor=#333333;strokeColor=#666666;" vertex="1" parent="1">
          <mxGeometry x="405" y="680" width="60" height="60" as="geometry" />
        </mxCell>
        <mxCell id="wJYU-AGBm8jU2JMhAJ0I-12" value="HEAD" style="ellipse;whiteSpace=wrap;html=1;fillColor=#f5f5f5;strokeColor=#666666;fontSize=16;fontStyle=1;fontColor=#333333;opacity=50;textOpacity=50;dashed=1;" vertex="1" parent="1">
          <mxGeometry x="315" y="540" width="100" height="40" as="geometry" />
        </mxCell>
        <mxCell id="wJYU-AGBm8jU2JMhAJ0I-13" value="" style="endArrow=classic;html=1;rounded=0;fillColor=#dae8fc;strokeColor=#6c8ebf;strokeWidth=3;" edge="1" parent="1">
          <mxGeometry width="50" height="50" relative="1" as="geometry">
            <mxPoint x="421" y="560" as="sourcePoint" />
            <mxPoint x="451" y="560" as="targetPoint" />
          </mxGeometry>
        </mxCell>
        <mxCell id="wJYU-AGBm8jU2JMhAJ0I-14" style="edgeStyle=orthogonalEdgeStyle;rounded=0;orthogonalLoop=1;jettySize=auto;html=1;fillColor=#f5f5f5;strokeColor=#666666;opacity=50;dashed=1;dashPattern=8 8;" edge="1" parent="1" source="wJYU-AGBm8jU2JMhAJ0I-12" target="wJYU-AGBm8jU2JMhAJ0I-2">
          <mxGeometry relative="1" as="geometry">
            <mxPoint x="515" y="590" as="sourcePoint" />
            <mxPoint x="365" y="610" as="targetPoint" />
          </mxGeometry>
        </mxCell>
        <mxCell id="wJYU-AGBm8jU2JMhAJ0I-24" value="&lt;i&gt;Local - Entorn de desenvolupament&lt;/i&gt;" style="rounded=1;whiteSpace=wrap;html=1;verticalAlign=bottom;labelPosition=center;verticalLabelPosition=top;align=center;textDirection=ltr;labelBackgroundColor=none;spacingTop=0;spacing=2;fontSize=16;fillColor=#dae8fc;strokeColor=#6c8ebf;" vertex="1" parent="1">
          <mxGeometry x="195" y="250" width="550" height="260" as="geometry" />
        </mxCell>
        <mxCell id="wJYU-AGBm8jU2JMhAJ0I-25" value="" style="sketch=0;aspect=fixed;pointerEvents=1;shadow=0;dashed=0;html=1;strokeColor=none;labelPosition=center;verticalLabelPosition=bottom;verticalAlign=top;align=center;fillColor=#00188D;shape=mxgraph.azure.computer" vertex="1" parent="1">
          <mxGeometry x="125" y="308.13" width="50" height="45" as="geometry" />
        </mxCell>
        <mxCell id="wJYU-AGBm8jU2JMhAJ0I-26" value="" style="rounded=1;whiteSpace=wrap;html=1;fontSize=20;fillColor=#d5e8d4;strokeColor=#82b366;" vertex="1" parent="1">
          <mxGeometry x="495" y="270.63" width="230" height="139.37" as="geometry" />
        </mxCell>
        <mxCell id="wJYU-AGBm8jU2JMhAJ0I-27" value="&lt;b&gt;Repositori local&lt;/b&gt;&lt;i&gt;&lt;br&gt;Local Repository&lt;/i&gt;" style="rounded=1;whiteSpace=wrap;html=1;fontSize=20;fillColor=#d5e8d4;strokeColor=#82b366;" vertex="1" parent="1">
          <mxGeometry x="495" y="270" width="120" height="140" as="geometry" />
        </mxCell>
        <mxCell id="wJYU-AGBm8jU2JMhAJ0I-28" value="&lt;b style=&quot;border-color: var(--border-color); font-size: 18px;&quot;&gt;Àrea de preparació&lt;/b&gt;&lt;br style=&quot;border-color: var(--border-color); font-size: 18px;&quot;&gt;&lt;i style=&quot;border-color: var(--border-color); font-size: 18px;&quot;&gt;Staging Area&lt;/i&gt;" style="rounded=1;whiteSpace=wrap;html=1;fontSize=20;fillColor=#d5e8d4;strokeColor=#82b366;" vertex="1" parent="1">
          <mxGeometry x="355" y="270.63" width="120" height="139.37" as="geometry" />
        </mxCell>
        <mxCell id="wJYU-AGBm8jU2JMhAJ0I-29" value="&lt;b style=&quot;border-color: var(--border-color); font-size: 18px;&quot;&gt;Directori de treball&lt;/b&gt;&lt;br style=&quot;border-color: var(--border-color); font-size: 18px;&quot;&gt;&lt;i style=&quot;border-color: var(--border-color); font-size: 18px;&quot;&gt;Working directory&lt;/i&gt;" style="rounded=1;whiteSpace=wrap;html=1;fontSize=20;fillColor=#d5e8d4;strokeColor=#82b366;" vertex="1" parent="1">
          <mxGeometry x="215" y="270.63" width="120" height="139.37" as="geometry" />
        </mxCell>
        <mxCell id="wJYU-AGBm8jU2JMhAJ0I-30" value="" style="shape=image;imageAspect=0;aspect=fixed;verticalLabelPosition=bottom;verticalAlign=top;image=https://cdn0.iconfinder.com/data/icons/folder-line/512/folder_tree-512.png;" vertex="1" parent="1">
          <mxGeometry x="240" y="420" width="70" height="70" as="geometry" />
        </mxCell>
        <mxCell id="wJYU-AGBm8jU2JMhAJ0I-31" value="" style="shape=image;imageAspect=0;aspect=fixed;verticalLabelPosition=bottom;verticalAlign=top;image=https://cdn.icon-icons.com/icons2/2718/PNG/512/git_branch_icon_174485.png;" vertex="1" parent="1">
          <mxGeometry x="574.5" y="420" width="71" height="71" as="geometry" />
        </mxCell>
        <mxCell id="wJYU-AGBm8jU2JMhAJ0I-32" value="&lt;i style=&quot;&quot;&gt;&lt;b style=&quot;font-size: 16px;&quot;&gt;Branques locals&lt;/b&gt;&lt;br style=&quot;font-size: 16px;&quot;&gt;&lt;div style=&quot;text-align: left;&quot;&gt;&lt;span style=&quot;background-color: initial;&quot;&gt;- main&lt;/span&gt;&lt;br&gt;&lt;/div&gt;&lt;div style=&quot;text-align: left;&quot;&gt;&lt;span style=&quot;background-color: initial;&quot;&gt;- &lt;b&gt;&lt;font color=&quot;#0066cc&quot;&gt;*&lt;/font&gt;menjar&lt;/b&gt;&lt;/span&gt;&lt;/div&gt;&lt;div style=&quot;text-align: left;&quot;&gt;&lt;span style=&quot;background-color: initial;&quot;&gt;- beguda&lt;/span&gt;&lt;/div&gt;&lt;div style=&quot;text-align: left;&quot;&gt;&lt;span style=&quot;background-color: initial;&quot;&gt;- neteja&lt;/span&gt;&lt;/div&gt;&lt;/i&gt;" style="rounded=1;whiteSpace=wrap;html=1;fontSize=16;fillColor=#d5e8d4;strokeColor=#82b366;verticalAlign=top;spacingLeft=5;" vertex="1" parent="1">
          <mxGeometry x="615" y="270" width="110" height="140" as="geometry" />
        </mxCell>
      </root>
    </mxGraphModel>
  </diagram>
</mxfile>
